{"title":"Miss Fisher's Murder Mysteries S1 Season 1 Complete 720p","uid":15919379,"size":30508652786,"categoryP":"video","categoryS":"hd___tv_shows","magnet":"?xt=urn:btih:f3ea77a2fdcdb7fd2b1df37f894bd38957c20f17&amp;dn=Miss+Fisher%27s+Murder+Mysteries+S1+Season+1+Complete+720p&amp;tr=udp%3A%2F%2Ftracker.leechers-paradise.org%3A6969&amp;tr=udp%3A%2F%2Fzer0day.ch%3A1337&amp;tr=udp%3A%2F%2Fopen.demonii.com%3A1337&amp;tr=udp%3A%2F%2Ftracker.coppersurfer.tk%3A6969&amp;tr=udp%3A%2F%2Fexodus.desync.com%3A6969","seeders":1,"leechers":3,"uploader":"jeanne007","files":13,"time":1475237128,"description":"Our female sleuth sashays through the back lanes and jazz clubs of late 1920s Melbourne, fighting injustice with her pearl-handled pistol and her dagger-sharp wit.\r\n\r\n-------------------------------------------------------------------------------------\r\nVideo\r\nID                                       : 1\r\nFormat                                   : AVC\r\nFormat/Info                              : Advanced Video Codec\r\nFormat profile                           :   \r\nFormat settings, CABAC                   : Yes\r\nFormat settings, ReFrames                : 5 frames\r\nCodec ID                                 : V_MPEG4/ISO/AVC\r\nDuration                                 : 59mn 22s\r\nBit rate                                 : 5 047 Kbps\r\nWidth                                    : 1 280 pixels\r\nHeight                                   : 720 pixels\r\nDisplay aspect ratio                     : 16:9\r\nFrame rate mode                          : Constant\r\nFrame rate                               : 23.976 (24000/1001) fps\r\nColor space                              : YUV\r\nChroma subsampling                       : 4:2:0\r\nBit depth                                : 8 bits\r\nScan type                                : Progressive\r\nBits/(Pixel*Frame)                       : 0.228\r\nStream size                              : 2.09 GiB (96%)\r\nWriting library                          : x264 core 125 r2200 999b753\r\nEncoding settings                        : cabac=1 / ref=5 / deblock=1:0:0 / \r\nLanguage                                 : English\r\nDefault                                  : Yes\r\nForced                                   : No\r\n\r\nAudio\r\nID                                       : 2\r\nFormat                                   : AC-3\r\nFormat/Info                              : Audio Coding 3\r\nMode extension                           : CM (complete main)\r\nFormat settings, Endianness              : Big\r\nCodec ID                                 : A_AC3\r\nDuration                                 : 59mn 22s\r\nBit rate mode                            : Constant\r\nBit rate                                 : 224 Kbps\r\nChannel(s)                               : 2 channels\r\nChannel positions                        : Front: L R\r\nSampling rate                            : 48.0 KHz\r\nFrame rate                               : 31.250 fps (1536 spf)\r\nCompression mode                         : Lossy\r\nStream size                              : 95.1 MiB (4%)\r\nDefault                                  : Yes\r\nForced                                   : No","torrent":{"xt":"urn:btih:f3ea77a2fdcdb7fd2b1df37f894bd38957c20f17","amp;dn":"Miss+Fisher%27s+Murder+Mysteries+S1+Season+1+Complete+720p","amp;tr":["udp%3A%2F%2Ftracker.leechers-paradise.org%3A6969","udp%3A%2F%2Fzer0day.ch%3A1337","udp%3A%2F%2Fopen.demonii.com%3A1337","udp%3A%2F%2Ftracker.coppersurfer.tk%3A6969","udp%3A%2F%2Fexodus.desync.com%3A6969"],"infoHash":"f3ea77a2fdcdb7fd2b1df37f894bd38957c20f17","infoHashBuffer":{"type":"Buffer","data":[243,234,119,162,253,205,183,253,43,29,243,127,137,75,211,137,87,194,15,23]},"announce":[],"urlList":[]}}